<svg width="16" height="16" viewBox="0 0 16 16" fill="none" xmlns="http://www.w3.org/2000/svg">
<path d="M6.19045 11.8007C5.526 11.1365 4.19711 9.80812 3.53267 9.14391C3.26689 8.87823 3.26689 8.47971 3.53267 8.21402C3.79845 7.94834 4.19711 7.94834 4.46289 8.21402C4.99445 8.74539 6.58911 10.3395 6.58911 10.3395C6.58911 10.3395 10.0442 6.02214 11.4396 4.2952C11.6389 4.02952 12.0376 3.89668 12.3698 4.09594C12.702 4.2952 12.7684 4.76015 12.5027 5.09225C11.0409 6.88561 7.98445 10.6716 7.18711 11.6679C7.00149 11.8998 6.85489 12 6.65556 12C6.45622 12 6.32334 11.9336 6.19045 11.8007Z" fill="#009E69"/>
</svg>
